<svg width="696" height="286" viewBox="0 0 696 286" fill="none" xmlns="http://www.w3.org/2000/svg">
<path d="M2 284.75L63.5 45.5L89 221.75L114.5 186.5L135.5 124.25L163.25 104.75L186.5 166.25L215 193.25L260 166.25L284 110.75L309.5 207.5L335 152.75L364.25 166.25L384.5 214.25L412.25 207.5L433.25 166.25L461 221.75L482 200.75L507.5 148.25L531.5 214.25L559.25 188L583.25 95.75L607.25 230.75L632 26L656 152.75L683.75 207.5" stroke="#232323" stroke-width="3"/>
<path d="M41.784 240H33.752V238.208C38.12 234.992 39.4 233.888 39.4 232.576C39.4 231.648 38.552 231.184 37.656 231.184C36.456 231.184 35.528 231.664 34.808 232.416L33.512 230.912C34.552 229.712 36.136 229.168 37.624 229.168C39.896 229.168 41.704 230.448 41.704 232.576C41.704 234.4 40.2 235.984 37.336 238H41.784V240ZM44.6258 239.072L45.6338 237.376C46.2098 237.904 46.8178 238.192 47.7618 238.192C49.4738 238.192 50.4338 236.736 50.4338 235.12V234.896C49.9218 235.616 48.8498 236.272 47.6818 236.272C45.7618 236.272 44.0338 235.088 44.0338 232.816C44.0338 230.736 45.6978 229.152 48.1298 229.152C51.3618 229.152 52.7218 231.648 52.7218 234.672C52.7218 237.888 50.9138 240.176 47.7618 240.176C46.4658 240.176 45.3778 239.744 44.6258 239.072ZM50.4018 233.36C50.3218 232.336 49.7458 231.12 48.2258 231.12C47.0098 231.12 46.3538 231.968 46.3538 232.72C46.3538 233.856 47.2978 234.352 48.3218 234.352C49.1218 234.352 49.9058 233.984 50.4018 233.36Z" fill="#232323"/>
<path d="M82.82 238.48L84.004 236.992C84.74 237.76 85.908 238.208 86.948 238.208C88.244 238.208 88.964 237.648 88.964 236.832C88.964 235.968 88.308 235.568 86.82 235.568C86.372 235.568 85.652 235.568 85.492 235.584V233.6C85.684 233.616 86.404 233.616 86.82 233.616C88.004 233.616 88.788 233.232 88.788 232.432C88.788 231.584 87.924 231.152 86.804 231.152C85.764 231.152 84.836 231.552 84.084 232.272L82.964 230.864C83.828 229.888 85.172 229.168 87.044 229.168C89.54 229.168 91.076 230.288 91.076 232.064C91.076 233.408 89.924 234.288 88.74 234.496C89.828 234.608 91.236 235.456 91.236 237.056C91.236 238.896 89.588 240.192 87.028 240.192C85.06 240.192 83.604 239.44 82.82 238.48ZM98.3706 240H96.0826V232.256L94.3226 234.064L93.0266 232.704L96.3866 229.328H98.3706V240Z" fill="#232323"/>
<path d="M134.044 234.672C134.044 231.92 135.404 229.168 138.46 229.168C141.5 229.168 142.876 231.92 142.876 234.672C142.876 237.424 141.5 240.192 138.46 240.192C135.404 240.192 134.044 237.424 134.044 234.672ZM140.556 234.672C140.556 232.704 139.98 231.184 138.46 231.184C136.924 231.184 136.348 232.704 136.348 234.672C136.348 236.64 136.924 238.176 138.46 238.176C139.98 238.176 140.556 236.64 140.556 234.672ZM153.166 240H145.134V238.208C149.502 234.992 150.782 233.888 150.782 232.576C150.782 231.648 149.934 231.184 149.038 231.184C147.838 231.184 146.91 231.664 146.19 232.416L144.894 230.912C145.934 229.712 147.518 229.168 149.006 229.168C151.278 229.168 153.086 230.448 153.086 232.576C153.086 234.4 151.582 235.984 148.718 238H153.166V240Z" fill="#232323"/>
<path d="M183.544 234.672C183.544 231.92 184.904 229.168 187.96 229.168C191 229.168 192.376 231.92 192.376 234.672C192.376 237.424 191 240.192 187.96 240.192C184.904 240.192 183.544 237.424 183.544 234.672ZM190.056 234.672C190.056 232.704 189.48 231.184 187.96 231.184C186.424 231.184 185.848 232.704 185.848 234.672C185.848 236.64 186.424 238.176 187.96 238.176C189.48 238.176 190.056 236.64 190.056 234.672ZM201.658 240H199.386V237.792H194.282V236L198.522 229.328H201.658V235.792H203.034V237.792H201.658V240ZM199.386 235.792V231.344L196.506 235.792H199.386Z" fill="#232323"/>
<path d="M230.044 234.672C230.044 231.92 231.404 229.168 234.46 229.168C237.5 229.168 238.876 231.92 238.876 234.672C238.876 237.424 237.5 240.192 234.46 240.192C231.404 240.192 230.044 237.424 230.044 234.672ZM236.556 234.672C236.556 232.704 235.98 231.184 234.46 231.184C232.924 231.184 232.348 232.704 232.348 234.672C232.348 236.64 232.924 238.176 234.46 238.176C235.98 238.176 236.556 236.64 236.556 234.672ZM240.926 234.688C240.926 231.456 242.75 229.168 245.902 229.168C247.198 229.168 248.286 229.616 249.054 230.272L248.03 231.984C247.454 231.44 246.846 231.136 245.902 231.136C244.286 231.136 243.23 232.528 243.23 234.224C243.23 234.304 243.23 234.384 243.246 234.448C243.742 233.728 244.814 233.088 245.982 233.088C247.902 233.088 249.614 234.256 249.614 236.528C249.614 238.608 247.966 240.192 245.534 240.192C242.286 240.192 240.926 237.696 240.926 234.688ZM247.31 236.624C247.31 235.472 246.366 234.976 245.326 234.976C244.526 234.976 243.758 235.376 243.246 236C243.342 237.024 243.918 238.208 245.422 238.208C246.654 238.208 247.31 237.376 247.31 236.624Z" fill="#232323"/>
<path d="M279.544 234.672C279.544 231.92 280.904 229.168 283.96 229.168C287 229.168 288.376 231.92 288.376 234.672C288.376 237.424 287 240.192 283.96 240.192C280.904 240.192 279.544 237.424 279.544 234.672ZM286.056 234.672C286.056 232.704 285.48 231.184 283.96 231.184C282.424 231.184 281.848 232.704 281.848 234.672C281.848 236.64 282.424 238.176 283.96 238.176C285.48 238.176 286.056 236.64 286.056 234.672ZM290.442 237.232C290.442 235.936 291.45 234.944 292.73 234.496C291.546 234.096 290.618 233.312 290.618 231.984C290.618 229.984 292.746 229.168 294.73 229.168C296.698 229.168 298.842 229.984 298.842 231.984C298.842 233.312 297.898 234.096 296.714 234.496C297.994 234.944 299.018 235.936 299.018 237.232C299.018 239.216 296.97 240.192 294.73 240.192C292.49 240.192 290.442 239.232 290.442 237.232ZM296.522 232.336C296.522 231.584 295.77 231.12 294.73 231.12C293.674 231.12 292.922 231.584 292.922 232.336C292.922 233.168 294.074 233.536 294.73 233.632C295.386 233.536 296.522 233.168 296.522 232.336ZM296.714 236.96C296.714 236.032 295.386 235.584 294.73 235.504C294.058 235.584 292.746 236.032 292.746 236.96C292.746 237.744 293.61 238.24 294.73 238.24C295.818 238.24 296.714 237.744 296.714 236.96Z" fill="#232323"/>
<path d="M334.02 240H331.732V232.256L329.972 234.064L328.676 232.704L332.036 229.328H334.02V240ZM336.582 234.672C336.582 231.92 337.942 229.168 340.998 229.168C344.038 229.168 345.414 231.92 345.414 234.672C345.414 237.424 344.038 240.192 340.998 240.192C337.942 240.192 336.582 237.424 336.582 234.672ZM343.094 234.672C343.094 232.704 342.518 231.184 340.998 231.184C339.462 231.184 338.886 232.704 338.886 234.672C338.886 236.64 339.462 238.176 340.998 238.176C342.518 238.176 343.094 236.64 343.094 234.672Z" fill="#232323"/>
<path d="M383.52 240H381.232V232.256L379.472 234.064L378.176 232.704L381.536 229.328H383.52V240ZM394.322 240H386.29V238.208C390.658 234.992 391.938 233.888 391.938 232.576C391.938 231.648 391.09 231.184 390.194 231.184C388.994 231.184 388.066 231.664 387.346 232.416L386.05 230.912C387.09 229.712 388.674 229.168 390.162 229.168C392.434 229.168 394.242 230.448 394.242 232.576C394.242 234.4 392.738 235.984 389.874 238H394.322V240Z" fill="#232323"/>
<path d="M433.02 240H430.732V232.256L428.972 234.064L427.676 232.704L431.036 229.328H433.02V240ZM442.814 240H440.542V237.792H435.438V236L439.678 229.328H442.814V235.792H444.19V237.792H442.814V240ZM440.542 235.792V231.344L437.662 235.792H440.542Z" fill="#232323"/>
<path d="M482.52 240H480.232V232.256L478.472 234.064L477.176 232.704L480.536 229.328H482.52V240ZM485.082 234.688C485.082 231.456 486.906 229.168 490.058 229.168C491.354 229.168 492.442 229.616 493.21 230.272L492.186 231.984C491.61 231.44 491.002 231.136 490.058 231.136C488.442 231.136 487.386 232.528 487.386 234.224C487.386 234.304 487.386 234.384 487.402 234.448C487.898 233.728 488.97 233.088 490.138 233.088C492.058 233.088 493.77 234.256 493.77 236.528C493.77 238.608 492.122 240.192 489.69 240.192C486.442 240.192 485.082 237.696 485.082 234.688ZM491.466 236.624C491.466 235.472 490.522 234.976 489.482 234.976C488.682 234.976 487.914 235.376 487.402 236C487.498 237.024 488.074 238.208 489.578 238.208C490.81 238.208 491.466 237.376 491.466 236.624Z" fill="#232323"/>
<path d="M532.02 240H529.732V232.256L527.972 234.064L526.676 232.704L530.036 229.328H532.02V240ZM534.598 237.232C534.598 235.936 535.606 234.944 536.886 234.496C535.702 234.096 534.774 233.312 534.774 231.984C534.774 229.984 536.902 229.168 538.886 229.168C540.854 229.168 542.998 229.984 542.998 231.984C542.998 233.312 542.054 234.096 540.87 234.496C542.15 234.944 543.174 235.936 543.174 237.232C543.174 239.216 541.126 240.192 538.886 240.192C536.646 240.192 534.598 239.232 534.598 237.232ZM540.678 232.336C540.678 231.584 539.926 231.12 538.886 231.12C537.83 231.12 537.078 231.584 537.078 232.336C537.078 233.168 538.23 233.536 538.886 233.632C539.542 233.536 540.678 233.168 540.678 232.336ZM540.87 236.96C540.87 236.032 539.542 235.584 538.886 235.504C538.214 235.584 536.902 236.032 536.902 236.96C536.902 237.744 537.766 238.24 538.886 238.24C539.974 238.24 540.87 237.744 540.87 236.96Z" fill="#232323"/>
<path d="M584.784 240H576.752V238.208C581.12 234.992 582.4 233.888 582.4 232.576C582.4 231.648 581.552 231.184 580.656 231.184C579.456 231.184 578.528 231.664 577.808 232.416L576.512 230.912C577.552 229.712 579.136 229.168 580.624 229.168C582.896 229.168 584.704 230.448 584.704 232.576C584.704 234.4 583.2 235.984 580.336 238H584.784V240ZM587.098 234.672C587.098 231.92 588.458 229.168 591.514 229.168C594.554 229.168 595.93 231.92 595.93 234.672C595.93 237.424 594.554 240.192 591.514 240.192C588.458 240.192 587.098 237.424 587.098 234.672ZM593.61 234.672C593.61 232.704 593.034 231.184 591.514 231.184C589.978 231.184 589.402 232.704 589.402 234.672C589.402 236.64 589.978 238.176 591.514 238.176C593.034 238.176 593.61 236.64 593.61 234.672Z" fill="#232323"/>
<path d="M634.284 240H626.252V238.208C630.62 234.992 631.9 233.888 631.9 232.576C631.9 231.648 631.052 231.184 630.156 231.184C628.956 231.184 628.028 231.664 627.308 232.416L626.012 230.912C627.052 229.712 628.636 229.168 630.124 229.168C632.396 229.168 634.204 230.448 634.204 232.576C634.204 234.4 632.7 235.984 629.836 238H634.284V240ZM644.838 240H636.806V238.208C641.174 234.992 642.454 233.888 642.454 232.576C642.454 231.648 641.606 231.184 640.71 231.184C639.51 231.184 638.582 231.664 637.862 232.416L636.566 230.912C637.606 229.712 639.19 229.168 640.678 229.168C642.95 229.168 644.758 230.448 644.758 232.576C644.758 234.4 643.254 235.984 640.39 238H644.838V240Z" fill="#232323"/>
<path d="M683.784 240H675.752V238.208C680.12 234.992 681.4 233.888 681.4 232.576C681.4 231.648 680.552 231.184 679.656 231.184C678.456 231.184 677.528 231.664 676.808 232.416L675.512 230.912C676.552 229.712 678.136 229.168 679.624 229.168C681.896 229.168 683.704 230.448 683.704 232.576C683.704 234.4 682.2 235.984 679.336 238H683.784V240ZM693.33 240H691.058V237.792H685.954V236L690.194 229.328H693.33V235.792H694.706V237.792H693.33V240ZM691.058 235.792V231.344L688.178 235.792H691.058Z" fill="#232323"/>
<path d="M448.216 43.216L451.24 38.128C452.968 39.712 454.792 40.576 457.624 40.576C462.76 40.576 465.64 36.208 465.64 31.36V30.688C464.104 32.848 460.888 34.816 457.384 34.816C451.624 34.816 446.44 31.264 446.44 24.448C446.44 18.208 451.432 13.456 458.728 13.456C468.424 13.456 472.504 20.944 472.504 30.016C472.504 39.664 467.08 46.528 457.624 46.528C453.736 46.528 450.472 45.232 448.216 43.216ZM465.544 26.08C465.304 23.008 463.576 19.36 459.016 19.36C455.368 19.36 453.4 21.904 453.4 24.16C453.4 27.568 456.232 29.056 459.304 29.056C461.704 29.056 464.056 27.952 465.544 26.08ZM478.548 52.576L475.908 50.416C477.444 49.6 479.22 47.632 479.604 45.952C479.46 46 479.028 46.096 478.692 46.096C476.868 46.096 475.428 44.656 475.428 42.592C475.428 40.48 477.156 38.752 479.172 38.752C481.428 38.752 483.492 40.528 483.492 43.648C483.492 47.248 481.476 50.464 478.548 52.576ZM508.781 46H501.965V39.376H486.653V34L499.373 13.984H508.781V33.376H512.909V39.376H508.781V46ZM501.965 33.376V20.032L493.325 33.376H501.965ZM517.31 43.216L520.334 38.128C522.062 39.712 523.886 40.576 526.718 40.576C531.854 40.576 534.734 36.208 534.734 31.36V30.688C533.198 32.848 529.982 34.816 526.478 34.816C520.718 34.816 515.534 31.264 515.534 24.448C515.534 18.208 520.526 13.456 527.822 13.456C537.518 13.456 541.598 20.944 541.598 30.016C541.598 39.664 536.174 46.528 526.718 46.528C522.83 46.528 519.566 45.232 517.31 43.216ZM534.638 26.08C534.398 23.008 532.67 19.36 528.11 19.36C524.462 19.36 522.494 21.904 522.494 24.16C522.494 27.568 525.326 29.056 528.398 29.056C530.798 29.056 533.15 27.952 534.638 26.08ZM556.593 46H549.105L560.577 19.984H544.449V13.984H568.497V18.736L556.593 46Z" fill="#FF0084"/>
<path d="M573.85 46H571.384L567.892 37.306H570.34L572.608 43.354L574.876 37.306H577.342L573.85 46ZM579.497 36.028C578.759 36.028 578.129 35.416 578.129 34.66C578.129 33.904 578.759 33.292 579.497 33.292C580.253 33.292 580.865 33.904 580.865 34.66C580.865 35.416 580.253 36.028 579.497 36.028ZM580.649 46H578.363V37.306H580.649V46ZM582.357 41.644C582.357 39.124 584.211 37.09 586.857 37.09C589.449 37.09 591.213 39.034 591.213 41.878V42.382H584.751C584.895 43.48 585.777 44.398 587.253 44.398C588.063 44.398 589.017 44.074 589.575 43.534L590.583 45.01C589.701 45.82 588.351 46.216 587.001 46.216C584.355 46.216 582.357 44.434 582.357 41.644ZM586.857 38.908C585.435 38.908 584.823 39.97 584.715 40.834H588.999C588.945 40.006 588.369 38.908 586.857 38.908ZM602.926 46H600.496L598.66 40.078L596.824 46H594.376L591.73 37.306H594.106L595.726 43.156L597.634 37.306H599.668L601.576 43.156L603.196 37.306H605.572L602.926 46ZM605.942 44.866L606.932 43.264C607.562 43.858 608.858 44.452 609.938 44.452C610.928 44.452 611.396 44.11 611.396 43.57C611.396 42.958 610.64 42.742 609.65 42.544C608.156 42.256 606.23 41.896 606.23 39.826C606.23 38.368 607.508 37.09 609.794 37.09C611.27 37.09 612.44 37.594 613.286 38.278L612.386 39.844C611.864 39.286 610.874 38.836 609.812 38.836C608.984 38.836 608.444 39.142 608.444 39.646C608.444 40.186 609.128 40.384 610.1 40.582C611.594 40.87 613.592 41.266 613.592 43.426C613.592 45.028 612.242 46.216 609.83 46.216C608.318 46.216 606.86 45.712 605.942 44.866Z" fill="#FF0084"/>
<circle cx="686.5" cy="212.5" r="6" stroke="#232323" stroke-width="3"/>
<circle cx="631.5" cy="18.5" r="6" fill="#FF0084" stroke="#232323" stroke-width="3"/>
</svg>
